<svg width="800" height="800" viewBox="0 0 800 800" fill="none" xmlns="http://www.w3.org/2000/svg">
<path d="M400 0C179.063 0 0 179.063 0 400C0 620.937 179.063 800 400 800C620.937 800 800 620.937 800 400C800 179.063 620.937 0 400 0ZM649.688 649.531C617.188 682.031 579.531 707.5 537.5 725.156C494.062 743.594 447.812 752.812 400 752.812C352.344 752.812 306.094 743.437 262.5 725.156C220.469 707.344 182.656 681.875 150.312 649.531C117.812 617.031 92.3438 579.375 74.6875 537.344C56.25 493.906 46.875 447.656 46.875 400C46.875 352.344 56.25 306.094 74.5312 262.5C92.3437 220.469 117.812 182.656 150.156 150.312C182.812 117.812 220.469 92.3437 262.5 74.5312C306.094 56.25 352.344 46.875 400 46.875C447.656 46.875 493.906 56.25 537.5 74.5312C579.531 92.3437 617.344 117.813 649.688 150.156C682.188 182.656 707.656 220.312 725.312 262.344C743.75 305.781 752.969 352.031 752.969 399.844C752.969 447.5 743.594 493.75 725.312 537.344C707.5 579.375 682.031 617.188 649.688 649.531Z" fill="white"/>
<path d="M574.219 322.188C575.625 290.781 571.406 260.313 560.781 230.625C559.375 226.875 557.656 225.469 553.75 226.562C545 229.219 535.937 231.25 527.344 234.375C503.594 242.969 481.875 255.469 460.781 269.063C458.594 270.469 455.312 271.406 452.656 270.937C418.125 264.844 383.437 265.156 348.75 270.469C345.312 270.938 340.937 270.156 338.125 268.437C313.594 252.5 288.594 236.875 260 229.375C236.406 223.125 241.25 221.875 234.531 243.281C226.562 268.906 223.437 295.469 225.156 322.344C225.312 324.219 223.906 326.563 222.656 328.281C212.344 340.625 204.375 354.219 199.531 369.531C190.156 399.219 192.031 429.219 197.969 459.062C209.687 517.656 249.219 558.75 307.656 568.906C337.812 574.219 368.906 574.687 397.187 577.031C428.75 574.687 457.969 574.531 486.406 570C536.094 562.031 573.594 535.625 592.344 487.656C598.906 470.938 602.5 452.656 604.687 434.844C609.531 395.469 602.813 358.594 575.938 327.5C575 326.25 574.219 324.063 574.219 322.188ZM548.594 490.781C543.438 515.156 529.219 531.875 505.469 540.469C482.5 548.906 458.75 552.344 434.531 553.906C422.813 554.687 411.094 554.063 399.375 554.063C367.812 554.688 336.25 553.437 305.781 544.375C267.5 532.969 250.312 510.156 249.219 470.156C248.75 455.937 250.312 442.187 257.031 429.375C270.312 403.594 293.281 394.531 320.469 394.063C335.312 393.906 350.312 395.156 365.312 396.562C396.719 399.375 427.812 396.406 459.062 394.688C472.813 393.906 486.875 393.594 500.312 395.937C529.219 400.937 551.094 429.688 551.562 462.031C551.562 471.563 550.469 481.406 548.594 490.781Z" fill="white"/>
<path d="M311.031 436.97C302.437 445.877 299.469 457.127 299 467.127C299 482.127 303.375 494.158 311.031 501.97C321.656 512.752 336.187 512.439 346.344 501.502C361.656 484.939 361.5 453.845 346.344 437.439C336.187 426.345 321.344 426.189 311.031 436.97Z" fill="white"/>
<path d="M454.938 435.72C437.438 451.814 437.438 487.283 454.938 503.22C465.094 512.439 478.844 511.97 488.375 502.127C497.125 493.064 500.25 481.658 500.562 469.314C500.25 456.97 497.125 445.72 488.219 436.658C478.688 426.814 464.938 426.502 454.938 435.72Z" fill="white"/>
</svg>
