<svg width="512" height="512" viewBox="0 0 512 512" fill="none" xmlns="http://www.w3.org/2000/svg">
<path d="M256 0C114.6 0 0 114.6 0 256C0 397.4 114.6 512 256 512C397.4 512 512 397.4 512 256C512 114.6 397.4 0 256 0ZM415.8 415.7C395 436.5 370.9 452.8 344 464.1C316.2 475.9 286.6 481.8 256 481.8C225.5 481.8 195.9 475.8 168 464.1C141.1 452.7 116.9 436.4 96.2 415.7C75.4 394.9 59.1 370.8 47.8 343.9C36 316.1 30 286.5 30 256C30 225.5 36 195.9 47.7 168C59.1 141.1 75.4 116.9 96.1 96.2C117 75.4 141.1 59.1 168 47.7C195.9 36 225.5 30 256 30C286.5 30 316.1 36 344 47.7C370.9 59.1 395.1 75.4 415.8 96.1C436.6 116.9 452.9 141 464.2 167.9C476 195.7 481.9 225.3 481.9 255.9C481.9 286.4 475.9 316 464.2 343.9C452.8 370.8 436.5 395 415.8 415.7Z" fill="white"/>
<path d="M184.4 203.4H134.5V363.1H184.4V203.4Z" fill="white"/>
<path d="M158.4 128C140 128 127.9 139.9 127.9 155.7C127.9 171.2 139.6 183.4 157.7 183.4H158.1C176.9 183.4 188.6 171.1 188.5 155.7C188.1 139.9 176.8 128 158.4 128Z" fill="white"/>
<path d="M320.7 201.9C292.1 201.9 274.2 217.5 270.9 228.5V203.4H214.8C215.5 216.7 214.8 363.1 214.8 363.1H270.9V276.8C270.9 271.9 270.7 267.1 272.1 263.7C275.9 254.1 284.2 244.1 299.1 244.1C318.6 244.1 327.4 258.9 327.4 280.5V363.1H384V274.3C384 224.9 356.2 201.9 320.7 201.9Z" fill="white"/>
</svg>
